<!-- Generator: Adobe Illustrator 27.3.1, SVG Export Plug-In . SVG Version: 6.00 Build 0)  -->
<svg version="1.1" id="Layer_1" xmlns="http://www.w3.org/2000/svg" xmlns:xlink="http://www.w3.org/1999/xlink" x="0px" y="0px"
	 viewBox="0 0 1080 1080" style="enable-background:new 0 0 1080 1080;" xml:space="preserve">
<path d="M1080,308.6c0,102.6,0,205.2-0.4,308.2c-25.8,0.4-51.1,0.4-77,0.4c0,26,0,51.5,0,77.3c-25.8,0-51.2,0-77,0
	c0,25.8,0,51.3,0,77.2c-25.9,0-51.4,0-76.9,0c0,25.8,0,51.2,0,77c25.7,0,51.2,0,77.1,0c0,25.9,0,51.4,0,77.3c25.9,0,51.4,0,76.8,0
	c0,25.8,0,51.2,0,77c-77.1,0-154,0-231.2,0c0,26,0,51.5,0,77.1c-51.2,0-102.4,0-153.9-0.4c-0.4-25.8-0.4-51.1-0.4-76.9
	c26,0,51.5,0,77.1,0c0-23.4,0-46.4-0.1-69.4c0-2.5-0.8-5-1.2-7.3c-77.2,0-153.6,0-229.9,0c0,25.7,0,51.1,0,76.9
	c25.7,0,51.2,0,76.9,0c0,26,0,51.5,0,77.1c-51.2,0-102.4,0-153.9-0.4c-0.4-25.8-0.4-51.1-0.4-76.9c-77.4,0-154.3,0-231.2,0
	c0-25.8,0-51.2,0-77c25.7,0,51.2,0,77.1,0c0-25.9,0-51.4,0-77.3c25.9,0,51.4,0,76.8,0c0-25.8,0-51.2,0-77c-51.4,0-102.6,0-154.2,0
	c0-25.9,0-51.4,0-77.2c-25.8,0-51.2,0-77,0c0-25.8,0-51.3,0-77c-26,0-51.5,0-77.1,0c0-102.6,0-205.2,0.4-308.2
	c25.8-0.4,51.1-0.4,76.9-0.4c0-26,0-51.5,0-77.2c25.8,0,51.2,0,77,0c0-25.8,0-51.3,0-77.2c25.9,0,51.4,0,77.1,0
	c0-51.7,0-102.9,0-154.2c51.2,0,102.4,0,153.9,0.4c0.4,51.5,0.4,102.5,0.4,153.7c25.9,0,51.4,0,77.1,0c0-51.5,0-102.8,0-154
	C514,0,565.2,0,616.8,0.4c0.4,51.5,0.4,102.5,0.4,153.7c25.9,0,51.4,0,77.1,0c0-51.5,0-102.8,0-154c51.2,0,102.4,0,153.9,0.4
	c0.4,51.5,0.4,102.6,0.4,154.1c26,0,51.5,0,77.3,0c0,25.9,0,51.4,0,77.2c25.8,0,51.2,0,77,0c0,25.8,0,51.3,0,77
	C1028.9,308.6,1054.4,308.6,1080,308.6 M230.7,308.6c-25.4,0-50.8,0-76.2,0c0,77.4,0,154.4,0,231.6c25.7,0,51.1,0,76.9,0
	c0,25.8,0,51.3,0,76.7c77.4,0,154.3,0,231.5,0c0-25.7,0-51.1,0-76.6c25.8,0,51.3,0,77.1,0c0,25.7,0,51.1,0,76.6
	c102.9,0,205.6,0,308.6,0c0-25.7,0-51.2,0-77c25.8,0,51.2,0,76.8,0c0-77.2,0-154.1,0-231.5c-25.7,0-51.2,0-77,0
	c0-25.8,0-51.2,0-76.7c-205.8,0-411.3,0-617.1,0c0,25.8,0,51.4,0.1,76.9C231.4,308.6,231.5,308.5,230.7,308.6 M617.1,755.6
	c0-20.4,0-40.7,0-61c-26,0-51.5,0-76.9,0c0,25.7,0,51.1,0,76.6c25.7,0,51.2,0,76.9,0C617.1,766.1,617.1,761.2,617.1,755.6z"/>
<path d="M231.4,308.6c76.3,0,152.7,0,229.1,0c0.6,0,1.3,0.1,2.1,0.1c0,25.6,0,51.1,0,76.9c-25.5,0-50.9,0-76.7,0c0,25.8,0,51.3,0,77
	c-25.9,0-51.4,0-77.2,0c0-25.5,0-50.9,0-76.7c-25.8,0-51.3,0-77.3,0c0-25.8,0-51.2,0-77C231.5,308.5,231.4,308.6,231.4,308.6z"/>
<path d="M702.8,308.6c23,0,45.6,0,68.4,0c0,25.8,0,51.2,0,77c-25.5,0-50.9,0-76.7,0c0,25.8,0,51.3,0,77c-25.9,0-51.4,0-77.3,0
	c0-25.5,0-51,0-76.8c-25.8,0-51.2,0-76.9,0c0-25.8,0-51.3,0-77.3C594.3,308.6,648.3,308.6,702.8,308.6z"/>
</svg>
