<!-- Generator: Adobe Illustrator 27.3.1, SVG Export Plug-In . SVG Version: 6.00 Build 0)  -->
<svg version="1.1" id="Layer_1" xmlns="http://www.w3.org/2000/svg" xmlns:xlink="http://www.w3.org/1999/xlink" x="0px" y="0px"
	 viewBox="0 0 1080 1080" style="enable-background:new 0 0 1080 1080;" xml:space="preserve">
<path d="M385.7,1080c-51.2,0-102.4,0-153.9-0.4c-0.4-25.8-0.4-51.2-0.4-77c26,0,51.5,0,76.9,0c0-51.5,0-102.6,0-153.8
	c-25.7,0-51.2,0-77.1,0c0,25.7,0,51.2,0,76.7c-51.5,0-102.6,0-153.9,0c0-51.4,0-102.6,0-154.2c51.4,0,102.7,0,153.9,0
	c0-25.8,0-51.2,0-77c-25.7,0-51.2,0-77.1,0c0-25.9,0-51.4,0-77.2c-25.8,0-51.2,0-77.1,0c0-25.8,0-51.3,0-77c-26,0-51.5,0-77.1,0
	c0-102.6,0-205.2,0.4-308.2c25.8-0.4,51.1-0.4,76.9-0.4c0-26,0-51.5,0-77.4c25.9,0,51.4,0,77.1,0c0-25.8,0-51.2,0-77
	c25.8,0,51.2,0,77,0c0-26,0-51.5,0-77.1c51.2,0,102.4,0,153.9,0.4c0.4,25.7,0.4,51.1,0.4,76.5c26,0,51.4,0,77.1,0
	c0-25.8,0-51.3,0-76.9C514,0,565.2,0,616.8,0.4c0.4,25.7,0.4,51.1,0.4,76.5c26,0,51.4,0,77.1,0c0-25.8,0-51.3,0-76.9
	c51.2,0,102.4,0,153.9,0.4c0.4,25.8,0.4,51.1,0.4,76.9c26,0,51.5,0,77.4,0c0,25.9,0,51.4,0,77.1c25.8,0,51.2,0,77,0
	c0,25.8,0,51.2,0,77c26,0,51.5,0,77.1,0c0,102.6,0,205.2-0.4,308.2c-25.8,0.4-51.2,0.4-77,0.4c0,26,0,51.5,0,77.3
	c-25.8,0-51.2,0-76.7,0c0,51.5,0,102.7,0,154.2c51.5,0,102.8,0,154,0c0,51.2,0,102.4-0.4,153.9c-51.5,0.4-102.6,0.4-154.1,0.4
	c0-26,0-51.5,0-76.8c-25.9,0-51.4,0-76.8,0c0,51.4,0,102.5,0,154c25.7,0,51.2,0,76.9,0c0,26,0,51.5,0,77.1
	c-51.2,0-102.4,0-153.9-0.4c-0.4-25.8-0.4-51.2-0.4-77c-26,0-51.5,0-77.3,0c0-51.5,0-102.7,0-153.8c-77.2,0-154.1,0-231.3,0
	c0,51.4,0,102.5,0,154.1c-25.8,0-51.3,0-77.1,0C385.7,1028.9,385.7,1054.4,385.7,1080 M230.7,231.4c-25.4,0-50.8,0-76.2,0
	c0,77.4,0,154.4,0,231.6c25.7,0,51.1,0,76.9,0c0,25.8,0,51.3,0,76.7c77.4,0,154.3,0,231.5,0c0-25.7,0-51.1,0-76.6
	c25.8,0,51.3,0,77.1,0c0,25.7,0,51.1,0,76.6c102.9,0,205.6,0,308.6,0c0-25.7,0-51.2,0-77c25.8,0,51.2,0,76.8,0
	c0-77.2,0-154.1,0-231.5c-25.7,0-51.2,0-77,0c0-25.8,0-51.2,0-76.7c-205.8,0-411.3,0-617.1,0c0,25.8,0,51.4,0.1,76.9
	C231.4,231.4,231.5,231.4,230.7,231.4 M469.5,694.3c23.5,0,46.9,0,70.4,0c0-26,0-51.4,0-76.9c-25.7,0-51.2,0-76.7,0
	c0,25.7,0,51.2,0,76.9C465.1,694.3,466.9,694.3,469.5,694.3z"/>
<path d="M231.4,231.4c76.3,0,152.7,0,229,0c0.6,0,1.3,0.1,2.2,0.1c0,51.3,0,102.5,0,153.9c-25.5,0-51,0-76.8,0c0-25.5,0-51,0-76.8
	c-51.5,0-102.7,0-154.4,0c0-25.8,0-51.2,0-77C231.5,231.4,231.4,231.4,231.4,231.4z"/>
<path d="M771.4,330.2c0,18.6,0,36.8,0,55.3c-25.8,0-51.3,0-77.1,0c0-25.5,0-51,0-76.8c-51.5,0-102.7,0-154.1,0c0-25.9,0-51.4,0-77.1
	c77,0,153.8,0,231.2,0C771.4,264.3,771.4,297.1,771.4,330.2z"/>
</svg>
