<!-- Generator: Adobe Illustrator 27.3.1, SVG Export Plug-In . SVG Version: 6.00 Build 0)  -->
<svg version="1.1" id="Layer_1" xmlns="http://www.w3.org/2000/svg" xmlns:xlink="http://www.w3.org/1999/xlink" x="0px" y="0px"
	 viewBox="0 0 1080 1080" style="enable-background:new 0 0 1080 1080;" xml:space="preserve">
<path d="M308.6,877.1c0-9.6,0-18.9,0-28.5c-25.8,0-51.3,0-77.1,0c0-25.8,0-51.2,0-77.1c-25.8,0-51.3,0-77,0c0-103,0-205.5,0-308.5
	c25.4,0,50.9,0,76.8,0c0-25.9,0-51.4,0-77.2c25.8,0,51.2,0,77.1,0c0-25.8,0-51.3,0-77c154.5,0,308.6,0,462.9,0c0,25.5,0,50.9,0,76.7
	c25.8,0,51.3,0,77.2,0c0,25.9,0,51.4,0,77.2c25.8,0,51.2,0,76.9,0c0,102.9,0,205.6,0,308.6c-25.5,0-51,0-76.7,0
	c0,25.8,0,51.2,0,77.1c-25.8,0-51.3,0-77.2,0c0,25.9,0,51.4,0,77.1c-154.4,0-308.4,0-462.9,0C308.6,909.5,308.6,893.5,308.6,877.1
	 M522.6,694.3c31.4,0,62.9,0,94.2,0c0-26,0-51.5,0-76.9c-51.4,0-102.5,0-153.7,0c0,25.7,0,51.2,0,76.9
	C482.8,694.3,502.4,694.3,522.6,694.3 M385.7,499.5c0,13.4,0,26.9,0,40.2c26,0,51.5,0,76.9,0c0-25.7,0-51.1,0-76.6
	c-25.7,0-51.2,0-76.9,0C385.7,475.1,385.7,486.9,385.7,499.5 M692.2,540c2.9,0.2,2.1-2,2.1-3.4c0-18.5,0-37,0-55.5
	c0-5.7,0-11.4,0-17.6c-26.4,0-51.7,0-77,0c0,25.4,0,50.8,0,76.6C642.2,540,666.8,540,692.2,540z"/>
</svg>
