<!-- Generator: Adobe Illustrator 27.3.1, SVG Export Plug-In . SVG Version: 6.00 Build 0)  -->
<svg version="1.1" id="Layer_1" xmlns="http://www.w3.org/2000/svg" xmlns:xlink="http://www.w3.org/1999/xlink" x="0px" y="0px"
	 viewBox="0 0 1080 1080" style="enable-background:new 0 0 1080 1080;" xml:space="preserve">
<path d="M408.9,925.7c-33.5,0-66.7,0-100.2,0c0-25.8,0-51.3,0-77.1c-25.8,0-51.2,0-77.1,0c0-25.8,0-51.3,0-77.1c-25.8,0-51.2,0-77,0
	c0-77.2,0-154.1,0-231.5c25.4,0,50.9,0,76.7,0c0-25.8,0-51.2,0-77.1c25.8,0,51.3,0,77.2,0c0-25.9,0-51.4,0-77.1
	c154.4,0,308.4,0,462.8,0c0,25.4,0,50.9,0,76.9c25.9,0,51.4,0,77.2,0c0,25.8,0,51.2,0,77.1c25.8,0,51.3,0,77,0
	c0,77.3,0,154.3,0,231.5c-25.5,0-50.9,0-76.8,0c0,25.8,0,51.3,0,77.2c-25.9,0-51.4,0-77.2,0c0,25.8,0,51.2,0,77.2
	C650.6,925.7,529.9,925.7,408.9,925.7 M580.5,694.3c-39.1,0-78.3,0-117.3,0c0,26,0,51.5,0,76.9c51.4,0,102.5,0,153.7,0
	c0-25.7,0-51.2,0-76.9C604.9,694.3,593.1,694.3,580.5,694.3 M617.1,568.2c0,16.3,0,32.5,0,48.7c26,0,51.5,0,76.9,0
	c0-25.7,0-51.1,0-76.6c-25.7,0-51.2,0-76.9,0C617.1,549.4,617.1,558.4,617.1,568.2 M453.2,617.1c3.2,0,6.3,0,9.4,0
	c0.1-0.9,0.2-1.3,0.2-1.7c0-21.7,0-43.4,0-65.1c0-1.4-0.4-2.9-0.2-4.3c0.7-4.9-0.1-6-5-6c-22.7,0-45.5,0-68.2,0
	c-1.1,0-2.2,0.1-3.4,0.2c0,25.7,0,51.2,0,77C408.3,617.1,430.4,617.1,453.2,617.1z"/>
</svg>
