<!-- Generator: Adobe Illustrator 27.3.1, SVG Export Plug-In . SVG Version: 6.00 Build 0)  -->
<svg version="1.1" id="Layer_1" xmlns="http://www.w3.org/2000/svg" xmlns:xlink="http://www.w3.org/1999/xlink" x="0px" y="0px"
	 viewBox="0 0 1080 1080" style="enable-background:new 0 0 1080 1080;" xml:space="preserve">
<path d="M462.8,231.5c25.6,0,51.1,0,77.1,0c0,25.7,0,51.2,0,77c25.8,0,51.2,0,77.1,0c0,25.8,0,51.3,0,77.2c51.6,0,102.8,0,154.3,0
	c0,25.8,0,51.2,0,77.1c51.5,0,102.7,0,154.2,0c0,25.8,0,51.2,0,77.1c25.8,0,51.3,0,77,0c0,103.1,0,205.7,0,308.6
	c-25.4,0-50.8,0-76.7,0c0,51.5,0,102.7,0,154.2c-257.3,0-514.3,0-771.5,0c0-51.2,0-102.3,0-153.8c-25.8,0-51.3,0-77,0
	c0-103.1,0-205.7,0-308.6c25.5,0,50.9,0,76.7,0c0-25.8,0-51.3,0-77.2c51.6,0,102.8,0,154.3,0c0-25.8,0-51.2,0-77.1
	c51.5,0,102.7,0,154.4,0c0-51.5,0-102.7,0-154.1C462.9,231.4,462.8,231.5,462.8,231.5 M580.5,848.6c37.9,0,75.7,0,113.5,0
	c0-26,0-51.5,0-76.9c-51.4,0-102.5,0-153.7,0c0,25.7,0,51.2,0,76.9C553.6,848.6,566.6,848.6,580.5,848.6 M694.3,593.6
	c0,7.8,0,15.6,0,23.2c26,0,51.5,0,76.9,0c0-25.7,0-51.1,0-76.6c-25.7,0-51.2,0-76.9,0C694.3,557.9,694.3,575.4,694.3,593.6
	 M385.7,686.9c0-8.6,0-17.2,0-25.8c0-11.7,0.1-23.4,0-35.1c-0.1-8.3-0.7-8.9-9-8.9c-21.2,0-42.4,0-63.6,0c-1.4,0-2.8,0-4.3,0
	c0,25.9,0,51.4,0,76.9c25.7,0,51.2,0,76.9,0C385.7,691.8,385.7,689.7,385.7,686.9z"/>
<path d="M462.9,231.4c-25.5,0-51.1,0-76.9,0c0-25.6,0-51.1,0-76.8c25.5,0,50.9,0,76.9,0c0,25.4,0,50.8,0,76.6
	C462.8,231.5,462.9,231.4,462.9,231.4z"/>
</svg>
