<!-- Generator: Adobe Illustrator 27.3.1, SVG Export Plug-In . SVG Version: 6.00 Build 0)  -->
<svg version="1.1" id="Layer_1" xmlns="http://www.w3.org/2000/svg" xmlns:xlink="http://www.w3.org/1999/xlink" x="0px" y="0px"
	 viewBox="0 0 1080 1080" style="enable-background:new 0 0 1080 1080;" xml:space="preserve">
<path d="M617.1,154.2c0,49.8,0,99.5,0.1,149.3c0,1.5,0,3,0,5c51.5,0,102.7,0,154.2,0c0,25.8,0,51.2,0,77.1c51.5,0,102.7,0,154.3,0
	c0,25.9,0,51.4,0,77.2c25.8,0,51.2,0,76.9,0c0,102.9,0,205.6,0,308.5c-25.4,0-50.8,0-76.7,0c0,25.8,0,51.3,0,77.2
	c-25.9,0-51.4,0-77.2,0c0,25.8,0,51.2,0,77.1c-25.8,0-51.3,0-77.2,0c0,25.9,0,51.4,0,77.1c-51.5,0-102.7,0-154.2,0
	c0-25.5,0-51,0-76.7c-51.6,0-102.8,0-154.3,0c0,25.5,0,51,0,76.6c-51.5,0-102.7,0-154.2,0c0-25.4,0-50.8,0-76.7
	c-25.8,0-51.3,0-77.2,0c0-25.9,0-51.4,0-77.2c-25.8,0-51.2,0-77.1,0c0-25.8,0-51.3,0-77.2c-25.9,0-51.4,0-77.1,0
	c0-103,0-205.5,0-308.5c25.5,0,51,0,76.9,0c0-1.8,0-3.1,0-4.5c0-21.3,0-42.7,0-64c0-2.2-0.1-4.4,0.2-6.6c0.1-0.8,1.3-1.7,2.2-2.1
	c0.9-0.4,2-0.1,3.1-0.1c48,0,95.9,0,143.9,0c1.5,0,3,0,4.8,0c0-25.7,0-51.1,0-76.9c51.5,0,102.7,0,154.3,0c0-25.9,0-51.4,0-77.2
	c25.8,0,51.2,0,77.1,0c0-25.8,0-51.3,0-77.3c25.8,0,51.2,0,77,0C617.1,154.3,617.1,154.2,617.1,154.2 M462.9,754.8
	c0,5.5,0,10.9,0,16.3c51.8,0,103,0,153.9,0c0-25.7,0-51.2,0-76.6c-51.2,0-102.4,0-153.9,0C462.9,714.5,462.9,734.3,462.9,754.8
	 M312.9,540c-1.4,0-2.7,0-4.1,0c0,26,0,51.5,0,76.8c25.8,0,51.3,0,76.6,0c0-25.7,0-51.1,0-76.8C361.4,540,337.5,540,312.9,540
	 M768.6,617.1c3,0.6,2.9-1.4,2.9-3.5c0-23.5,0-47,0-70.6c0-1-0.2-2-0.2-2.8c-25.8,0-51.2,0-76.7,0c0,25.7,0,51.1,0,76.8
	C719.1,617.1,743.4,617.1,768.6,617.1z"/>
<path d="M617.2,154.3c0-25.5,0-51.1,0-76.9c25.6,0,51.1,0,76.8,0c0,25.5,0,50.9,0,76.9c-25.4,0-50.8,0-76.6,0
	C617.1,154.2,617.1,154.3,617.2,154.3z"/>
</svg>
